<svg width="69" height="61" viewBox="0 0 69 61" fill="none" xmlns="http://www.w3.org/2000/svg">
<path d="M7.36236 0.128494C6.13447 0.533821 5.33836 1.29679 5.01452 2.36971C4.78513 3.19229 4.74465 35.8926 4.98753 36.3576C5.13596 36.6437 5.62172 36.9179 5.97255 36.9179C6.067 36.9179 6.30988 36.8106 6.51228 36.6675C6.73174 36.5184 6.86311 36.2703 6.86311 36.0049V19.7392C6.86311 1.83325 6.83612 2.59622 7.53778 2.04784C7.75367 1.88094 8.02354 1.80941 8.48231 1.80941C9.26493 1.80941 9.75069 2.14321 9.96658 2.81081C10.0475 3.085 10.1015 12.2048 10.1015 28.6564V52.4655C10.1015 53.3597 9.37657 54.0847 8.48231 54.0847C7.58805 54.0847 6.86311 53.3597 6.86311 52.4655V46.8841V40.0959C6.86311 39.8306 6.73174 39.5824 6.51228 39.4333C5.93207 39.028 5.35186 39.1233 5.04151 39.6717C4.86609 39.9578 4.83911 41.1023 4.83911 47.0272V53.0872C4.83911 53.6313 4.42313 54.0851 3.88108 54.1323C2.58572 54.2396 1.72215 54.5854 0.993505 55.3006C0.143425 56.1471 -0.0454822 56.8027 0.00849119 58.6744L0.0330491 59.5784C0.0431872 59.9516 0.210727 60.3031 0.494252 60.546C0.772059 60.7992 1.13435 60.9395 1.51017 60.9395H8.48231H15.4545C15.8303 60.9395 16.1926 60.7992 16.4704 60.546C16.753 60.3039 16.9157 59.9504 16.9157 59.5782V58.4002C16.9157 56.7312 16.9022 56.6239 16.5513 56.0398C15.8632 54.8834 14.7297 54.2635 13.097 54.1323C12.5475 54.0851 12.1255 53.6253 12.1255 53.0738V37.9789V23.7185C12.1255 22.7125 12.9411 21.8969 13.9471 21.8969H15.3276C15.5712 21.8969 15.7687 22.0944 15.7687 22.338C15.7687 22.9341 16.16 23.4825 16.7537 23.7209C17.199 23.9116 18.157 23.9236 28.3715 23.8997C39.3821 23.864 39.5035 23.864 39.8813 23.6136C40.0837 23.4825 40.3671 23.1844 40.4885 22.9579C40.7179 22.5765 40.7314 21.8492 40.7314 12.8605C40.7314 2.11936 40.7719 2.5843 39.8678 2.09552C39.463 1.88094 38.9638 1.86901 28.1421 1.86901H17.4913C17.0752 1.86901 16.6719 2.01213 16.3489 2.27434C15.9441 2.59622 15.8362 2.77504 15.7822 3.2519C15.7356 3.5884 15.4513 3.8411 15.1116 3.84797L13.9336 3.87181L12.9449 3.89181C12.5046 3.90072 12.1308 3.57076 12.085 3.13268C12.0446 2.71544 11.9096 2.15513 11.7882 1.90478C11.5183 1.33255 10.7357 0.60535 10.034 0.295395C9.35938 -0.0145607 8.05052 -0.098011 7.36236 0.128494ZM38.7074 12.8963C38.7074 17.9989 34.5709 22.1354 29.4683 22.1354H28.2501H27.0318C21.9292 22.1354 17.7927 17.9989 17.7927 12.8963C17.7927 7.79369 21.9292 3.65722 27.0318 3.65722H28.2501H29.4683C34.5709 3.65722 38.7074 7.79369 38.7074 12.8963ZM15.6338 6.9356C15.6338 7.62692 15.0734 8.18735 14.382 8.18735H13.8796H13.3773C12.6859 8.18735 12.1255 7.62692 12.1255 6.9356C12.1255 6.24428 12.6859 5.68386 13.3773 5.68386H13.8796H14.382C15.0734 5.68386 15.6338 6.24428 15.6338 6.9356ZM15.7417 12.8605L15.7261 13.9761C15.7123 14.9696 14.9135 15.7732 13.9201 15.7932C12.9348 15.8128 12.1255 15.0195 12.1255 14.034V12.8963V11.7972C12.1255 10.7911 12.9411 9.97556 13.9471 9.97556C14.9504 9.97556 15.7611 10.7938 15.7517 11.7971L15.7417 12.8605ZM15.6338 18.857C15.6338 19.5483 15.0734 20.1087 14.382 20.1087H13.8796H13.3773C12.6859 20.1087 12.1255 19.5483 12.1255 18.857C12.1255 18.1657 12.6859 17.6052 13.3773 17.6052H13.8796H14.382C15.0734 17.6052 15.6338 18.1657 15.6338 18.857Z" fill="#DC3449"/>
<path d="M23.9319 5.47026C23.3112 5.76829 23.3247 5.60139 23.3247 12.8615V19.3217C23.3247 19.6022 23.4481 19.8686 23.6621 20.0501C23.8375 20.217 24.1478 20.3481 24.3367 20.3481C24.5256 20.3481 24.836 20.217 25.0114 20.0501C25.3487 19.764 25.3487 19.764 25.3487 17.189V16.488C25.3487 15.4596 26.1824 14.6259 27.2108 14.6259C29.2078 14.614 29.869 14.5305 30.854 14.1252C31.6771 13.7795 32.905 12.6946 33.2963 11.9555C34.7536 9.18973 32.8645 6.03056 29.3967 5.44642C28.4252 5.27952 24.2828 5.30336 23.9319 5.47026ZM29.7206 7.40152C29.9635 7.48497 30.3952 7.74724 30.6786 7.96183C32.001 8.98707 32.0549 10.811 30.8 11.9316C29.9904 12.635 29.5047 12.7661 27.3457 12.8138C26.2506 12.84 25.3487 11.9594 25.3487 10.8639V10.0481V9.19116C25.3487 8.11059 26.2247 7.23462 27.3053 7.23462C28.6681 7.23462 29.4102 7.28231 29.7206 7.40152Z" fill="#FBD574"/>
<path d="M32.9051 28.1328C31.9741 28.3116 31.2859 28.6811 30.7462 29.2891C30.3818 29.6825 28.5063 32.8775 28.1689 33.6643C28.0745 33.9027 27.98 33.9146 25.6592 33.9623C23.4193 33.9981 23.2034 34.0219 22.5152 34.308C21.4627 34.7491 20.977 35.1544 20.5047 35.9889C20.1404 36.6089 20.0864 36.8473 20.0864 37.6341C20.0864 38.4209 20.1404 38.6593 20.5047 39.2792C20.7206 39.6846 21.1119 40.1495 21.3413 40.3283C21.8541 40.7098 23.0145 41.2105 23.3923 41.2105C24.0535 41.2224 24.0265 41.3536 23.1629 43.0106C22.6045 44.0601 22.3079 45.2289 22.2985 46.4176L22.2723 49.7343C22.2454 53.1438 22.2723 55.0035 22.3803 55.3016C22.4613 55.54 22.6906 55.8738 22.9065 56.0288C23.2978 56.3149 23.2978 56.3149 23.3518 57.9243C23.3923 59.4264 23.4193 59.5575 23.7566 60.0105C23.9725 60.2966 24.3503 60.5947 24.7011 60.7497C25.2544 60.9762 25.5242 61 28.1824 61C30.8406 61 31.1105 60.9762 31.6637 60.7497C32.0145 60.5947 32.3924 60.2966 32.6082 60.0105C32.9456 59.5575 32.9726 59.4264 33.013 57.9958C33.0432 57.1445 33.742 56.4699 34.5939 56.4699H37.6143C40.4884 56.4699 42.3235 56.4222 42.5933 56.3387C43.0656 56.1957 43.3624 55.6711 43.241 55.2181C43.0521 54.5505 43.16 54.5625 33.3099 54.5625H28.9425C26.3616 54.5625 24.2694 52.4702 24.2694 49.8893V47.4133C24.2694 45.9703 24.6214 44.5491 25.2949 43.2729C25.9345 42.0766 27.1808 41.3297 28.5374 41.3297H44.5364H60.7352C61.9717 41.3297 63.1109 42.0007 63.7104 43.0822C64.3481 44.2402 64.6877 45.5387 64.6987 46.8606L64.7224 49.6985C64.7447 52.3782 62.5786 54.5625 59.8988 54.5625H55.7493C48.7868 54.5625 46.6548 54.5982 46.3984 54.7174C45.9936 54.8963 45.7912 55.3612 45.9127 55.8023C46.0881 56.4222 46.4659 56.4699 51.4585 56.4699H54.7627C55.4343 56.4699 55.9787 57.0143 55.9787 57.6859C55.9787 59.1164 56.1137 59.6529 56.6129 60.1774C57.3146 60.9166 57.7463 61 60.8768 61C63.8723 61 64.3176 60.9285 64.9923 60.3682C65.6265 59.8436 65.7479 59.486 65.8019 57.8051C65.8559 56.4103 65.8963 56.2076 66.1122 56.1003C66.2472 56.0407 66.4765 55.8142 66.598 55.5996C66.8139 55.2539 66.8409 54.7532 66.8409 49.9727V46.6464C66.8409 45.3865 66.5304 44.1459 65.9368 43.0345L65.3724 41.9616C65.2102 41.6532 65.3921 41.2757 65.7344 41.2105C67.7179 40.8409 68.9998 39.4342 68.9998 37.6341C68.9998 36.1558 68.1632 34.9875 66.6655 34.3319C65.9233 34.01 65.8019 33.9981 63.4675 33.9504L63.4296 33.9498C61.9521 33.9281 60.6006 33.1131 59.8918 31.8165C58.5964 29.456 58.0027 28.7646 56.8963 28.3235C56.4238 28.1345 55.9197 28.0368 55.4109 28.0358L44.9142 28.0135C36.5483 28.0016 33.4583 28.0255 32.9051 28.1328ZM56.1946 30.0282C56.4375 30.1475 56.8018 30.4932 57.0177 30.8031C57.517 31.5303 61.6459 39.1958 61.6459 39.3985C61.6459 39.5057 58.0702 39.5415 44.5094 39.5415C35.091 39.5415 27.3728 39.4938 27.3728 39.4461C27.3728 39.2912 31.6637 31.3396 32.0145 30.8627C32.4598 30.2428 32.8241 29.9806 33.4178 29.8733C33.6877 29.8256 38.8422 29.8017 44.8467 29.8017C54.9127 29.8256 55.8033 29.8375 56.1946 30.0282ZM26.0775 37.4791C25.5917 38.3851 25.1599 39.1958 25.1194 39.2673C25.079 39.3627 24.7686 39.4223 24.2829 39.4223C22.974 39.4223 22.1104 38.707 22.1104 37.6341C22.1104 36.9903 22.4747 36.4181 23.0819 36.0843C23.4598 35.8816 23.7701 35.8459 25.2409 35.8459C26.0159 35.8459 26.5104 36.6729 26.1438 37.3556L26.0775 37.4791ZM66.1257 36.1439C67.2996 36.9188 67.2187 38.5759 65.9908 39.2077C65.7344 39.3508 65.3026 39.4223 64.8169 39.4223C64.351 39.4223 63.9223 39.168 63.6989 38.7592L63.1167 37.6937C62.604 36.74 62.1857 35.9293 62.1857 35.8936C62.1857 35.8578 62.9953 35.8459 63.9803 35.8697C65.505 35.9055 65.8154 35.9413 66.1257 36.1439Z" fill="#93B096"/>
<path d="M30.4763 44.2624C28.6277 44.8585 27.5752 46.1698 27.5752 47.8865C27.5887 49.031 27.9665 49.8178 28.8706 50.5688C29.7881 51.3318 30.5842 51.6179 31.7581 51.6298C34.1734 51.6417 36.076 49.9608 36.0625 47.8269C36.049 47.2428 35.9681 46.8255 35.7657 46.4321C35.3743 45.6334 34.3893 44.7512 33.5393 44.4293C32.6217 44.0717 31.2859 44.0001 30.4763 44.2624ZM32.8511 46.1698C33.1345 46.289 33.4583 46.5752 33.6742 46.897C34.4838 48.1249 33.6067 49.627 32.001 49.7582C29.7476 49.9608 28.7221 47.3739 30.6112 46.2533C31.1509 45.9195 32.1764 45.8837 32.8511 46.1698Z" fill="white"/>
<path d="M55.8708 44.2864C54.8992 44.5964 53.9682 45.3236 53.4824 46.1581C53.1316 46.778 53.0776 46.9806 53.0776 47.8747C53.0776 49.0788 53.361 49.7226 54.2651 50.5213C56.2891 52.3214 59.6624 51.8803 61.0387 49.651C61.3491 49.1503 61.4435 48.8404 61.484 48.0536C61.538 47.1952 61.4975 47.0045 61.1736 46.3488C60.2696 44.5725 57.9083 43.6546 55.8708 44.2864ZM58.4075 46.2415C59.4465 46.8733 59.7433 47.7913 59.1901 48.7092C58.7313 49.4961 58.2861 49.7345 57.2741 49.7345C56.5589 49.7345 56.3565 49.6868 55.9517 49.4126C54.7373 48.59 54.8318 46.921 56.1406 46.2177C56.7748 45.8839 57.8273 45.8958 58.4075 46.2415Z" fill="white"/>
<path d="M38.7613 46.0157C38.4914 46.2184 38.397 46.4091 38.397 46.6952C38.397 46.9813 38.4914 47.1721 38.7613 47.3747C38.9977 47.5527 39.2857 47.6489 39.5816 47.6489H44.4555C48.8678 47.6489 49.8528 47.6132 50.1632 47.4701C50.8109 47.184 50.9188 46.5045 50.3791 46.0395C50.1708 45.8479 49.8981 45.7415 49.6151 45.7415H44.5904H39.5816C39.2857 45.7415 38.9977 45.8377 38.7613 46.0157Z" fill="white"/>
<path d="M38.7614 50.0685C38.2891 50.4262 38.2621 51.0103 38.6939 51.3799C38.9773 51.6421 39.0312 51.6421 44.2802 51.6779C47.1812 51.6898 49.7045 51.6779 49.8664 51.6421C50.6895 51.4633 50.9728 50.605 50.3791 50.0924C50.1709 49.9007 49.8982 49.7943 49.6152 49.7943H44.5905H39.5817C39.2857 49.7943 38.9978 49.8906 38.7614 50.0685Z" fill="white"/>
</svg>
